<svg xmlns="http://www.w3.org/2000/svg" width="283" height="107" viewBox="0 0 283 107"><style>.s0{fill:#9d9d9c}.s1{fill:#0069b4}</style><path class="s0" d="M24.5 46.8c-.3-7.1-5.3-10.2-11.8-10.2C6.8 36.6 1 39.5 1 46c0 5.9 5.2 7.4 10.3 8.5 5.1 1.1 10.3 1.9 10.3 6.3 0 4.6-4.3 5.9-8.2 5.9-4.9 0-9.4-2.3-9.4-7.8H0c0 7.8 6.1 11.4 13.3 11.4 5.9 0 12.6-2.7 12.6-9.6 0-6.3-5.1-8.1-10.3-9.3-5.2-1.2-10.3-1.8-10.3-5.7 0-4.2 3.6-5.5 7.2-5.5 4.4 0 7.5 2 8 6.6h4m32-9.4h-4.3v20.5c0 5.7-3 8.8-8.4 8.8-5.7 0-8.9-3.1-8.9-8.8V37.4h-4.3v20.5c0 8.6 4.9 12.4 13.2 12.4 8 0 12.7-4.3 12.7-12.4V37.4m6.7 32.1h4.3V56.4h9.8c6.4 0 9.9-3.6 9.9-9.5s-3.5-9.5-9.9-9.5H63.2v32.1zM67.5 41h8.4c4.8 0 7 2.1 7 5.9 0 3.8-2.2 5.9-7 5.9h-8.4V41m24.7 28.5h4.3V56.4h9.8c6.4 0 9.9-3.6 9.9-9.5s-3.5-9.5-9.9-9.5H92.2v32.1zM96.5 41h8.4c4.8 0 7 2.1 7 5.9 0 3.8-2.2 5.9-7 5.9h-8.4V41m24.8 28.5h21.3v-3.6h-17.1V37.4h-4.2v32.1m45.4-32.1h-4.8l-9.5 15.3-9.6-15.3h-5.1l12.4 19v13.1h4.3V56.4l12.3-19m36 32.1h6.6V48h.1l13.3 21.5h7.1V37.4h-6.6v21.5h-.1l-13.4-21.5h-7v32.1"/><path class="s1" d="M256.9 16.5l7.2-3.8c11.6 9.8 19 24.5 19 40.9s-7.3 31-18.9 40.8l-7.2-3.8c11.3-8.4 18.6-21.8 18.6-37-.1-15.3-7.4-28.7-18.7-37.1zm-68 58.7c7.8 14.5 23 24.3 40.6 24.3 7.2 0 14.1-1.7 20.2-4.6l7.9 4.2c-8.1 5-17.7 7.9-28 7.9-21.8 0-40.6-13-48.9-31.8h8.2zM229.5 0c10.2 0 19.8 2.9 27.9 7.9l-7.9 4.2c-6.1-2.9-12.9-4.6-20.1-4.6-17.5 0-32.7 9.8-40.5 24.2h-8.3C189 13 207.8 0 229.5 0M167 53.6c0 9.5 6 17.1 16.2 17.1s16.2-7.6 16.2-17.1c0-9.8-6-17.4-16.2-17.4S167 43.8 167 53.6zm7.2 0c0-5.8 2.4-11.3 8.9-11.3s8.9 5.5 8.9 11.3c0 5.5-2.4 11-8.9 11s-8.9-5.5-8.9-11"/></svg>